<?xml version="1.0" encoding="UTF-8" standalone="no"?>
<!-- Created with Inkscape (http://www.inkscape.org/) -->

<svg
   xmlns:dc="http://purl.org/dc/elements/1.1/"
   xmlns:cc="http://creativecommons.org/ns#"
   xmlns:rdf="http://www.w3.org/1999/02/22-rdf-syntax-ns#"
   xmlns:svg="http://www.w3.org/2000/svg"
   xmlns="http://www.w3.org/2000/svg"
   xmlns:sodipodi="http://sodipodi.sourceforge.net/DTD/sodipodi-0.dtd"
   xmlns:inkscape="http://www.inkscape.org/namespaces/inkscape"
   width="114.41mm"
   height="108.16mm"
   version="1.1"
   viewBox="0 0 114.41 108.16"
   id="svg108"
   sodipodi:docname="loboibj-opt.svg"
   inkscape:version="0.92.5 (2060ec1f9f, 2020-04-08)"
   inkscape:export-filename="C:\Users\mhorod\Desktop\loboibj-opt.png"
   inkscape:export-xdpi="28.417095"
   inkscape:export-ydpi="28.417095">
  <defs
     id="defs112" />
  <sodipodi:namedview
     pagecolor="#ffffff"
     bordercolor="#666666"
     borderopacity="1"
     objecttolerance="10"
     gridtolerance="10"
     guidetolerance="10"
     inkscape:pageopacity="0"
     inkscape:pageshadow="2"
     inkscape:window-width="1920"
     inkscape:window-height="1057"
     id="namedview110"
     showgrid="false"
     inkscape:zoom="0.81643721"
     inkscape:cx="225.84133"
     inkscape:cy="185.8988"
     inkscape:window-x="-8"
     inkscape:window-y="-8"
     inkscape:window-maximized="1"
     inkscape:current-layer="g50" />
  <metadata
     id="metadata2">
    <rdf:RDF>
      <cc:Work
         rdf:about="">
        <dc:format>image/svg+xml</dc:format>
        <dc:type
           rdf:resource="http://purl.org/dc/dcmitype/StillImage" />
        <dc:title></dc:title>
      </cc:Work>
    </rdf:RDF>
  </metadata>
  <g
     transform="translate(-21.173 -82.079)"
     id="g106">
    <g
       style="font-size:96px;line-height:1.25;font-family:'Varela Round';font-variant-ligatures:normal;font-variant-caps:normal;font-variant-numeric:normal;font-feature-settings:normal;letter-spacing:0px;word-spacing:0px"
       id="g76"
       transform="matrix(1.0677655,0,0,1.0677655,-167.75657,-109.549)">
      <path
         inkscape:connector-curvature="0"
         id="path32"
         d="m 187.62,258.2 q -1.824,0 -3.072,-1.248 -1.248,-1.248 -1.248,-3.072 v -41.184 q 0,-1.824 1.248,-3.072 1.248,-1.344 3.072,-1.344 1.92,0 3.168,1.248 1.248,1.248 1.248,3.168 v 41.184 q 0,1.824 -1.344,3.072 -1.248,1.248 -3.072,1.248 z" />
      <path
         inkscape:connector-curvature="0"
         id="path34"
         d="m 264.31,280.76 q -3.456,0 -6.048,-0.864 -1.152,-0.384 -1.824,-1.344 -0.672,-0.864 -0.672,-2.112 0,-1.44 1.056,-2.592 1.056,-1.056 2.592,-1.056 0.576,0 1.44,0.096 0.864,0.192 1.44,0.192 2.976,0 4.416,-1.056 1.44,-1.056 1.44,-4.608 v -54.624 q 0,-1.824 1.248,-3.072 1.248,-1.344 3.072,-1.344 1.92,0 3.168,1.248 1.248,1.248 1.248,3.168 v 54.816 q 0,5.952 -3.072,9.504 -2.976,3.648 -9.504,3.648 z" />
      <g
         style="stroke:#000000"
         id="g42"
         transform="matrix(-0.13263,0.38642,-0.38642,-0.13263,262.44,202.1)">
        <circle
           style="fill:none;stroke-width:2.89129996"
           id="circle36"
           r="24.820999"
           cy="156.62"
           cx="98.759003"
           transform="rotate(21.985)" />
        <path
           inkscape:connector-curvature="0"
           id="path38"
           style="stroke-width:2;stroke-linecap:round;stroke-linejoin:round;paint-order:fill markers stroke"
           d="m 29.833,198.52 c -6.739,-5.1709 -11.777,-13.197 -13.62,-21.698 -0.5729,-2.6427 -0.70496,-3.8219 -0.77655,-6.9342 l -0.06998,-3.0424 1.1432,-1.1432 c 6.9278,-6.9278 17.48,-8.7642 26.353,-4.5862 5.0226,2.3649 9.1669,6.6077 11.394,11.665 l 0.56628,1.2856 -0.15489,0.88389 c -0.08519,0.48613 -0.37728,1.5657 -0.64911,2.3991 -2.4188,7.4157 -9.6594,15.144 -18.448,19.69 -1.6207,0.8383 -4.5527,2.101 -4.8432,2.0858 -0.0627,-0.003 -0.46552,-0.27571 -0.89517,-0.60537 z" />
        <path
           inkscape:connector-curvature="0"
           id="path40"
           style="stroke-width:2;stroke-linejoin:round;paint-order:fill markers stroke"
           d="m 31.112,205.44 c -3.4655,-0.25043 -7.4506,-1.5429 -10.359,-3.3596 -0.25659,-0.16029 -8.0073,-0.86291 -0.76977,-0.48086 h 2.7901 c 2.9933,0 4.1867,-0.15783 6.6994,-0.88598 l 1.074,-0.31124 0.89073,0.57621 c 1.1604,0.75065 3.9559,2.0974 5.2376,2.5232 0.55558,0.18459 1.5745,0.46233 2.2642,0.61719 l 3.3858,0.53828 -3.1332,0.0127 c -1.6166,0.43489 -2.9102,0.64859 -4.7265,0.78077 -0.93755,0.0682 -1.7615,0.11643 -1.8309,0.10712 -0.06945,-0.009 -0.75458,-0.0623 -1.5225,-0.11782 z" />
      </g>
      <g
         id="g50"
         style="font-variant-ligatures:normal;font-variant-caps:normal;font-variant-numeric:normal;font-feature-settings:normal;stroke:#000000"
         transform="matrix(0.43349,0,0,0.43349,167.24,137.74)">
        <circle
           style="fill:none;stroke-width:2"
           id="circle44"
           r="24.820999"
           cy="-266.10999"
           cx="59.023998"
           transform="rotate(104.1)" />
        <path
           inkscape:connector-curvature="0"
           id="path46"
           style="stroke-width:3;stroke-linecap:square;paint-order:fill markers stroke"
           d="m 242.86,138.92 c -1.8159,-0.15847 -4.245,-0.69752 -6.0268,-1.3375 -2.2649,-0.81344 -4.8206,-2.2591 -6.7857,-3.8383 -1.9785,-1.59 -4.2344,-4.2368 -5.4294,-6.3702 l -0.27508,-0.49107 0.12877,-0.98214 c 0.97111,-7.4067 3.5747,-13.404 7.936,-18.281 0.42817,-0.47879 0.80639,-0.87053 0.84049,-0.87053 0.0341,0 0.15772,0.37165 0.27469,0.82589 0.11698,0.45424 0.45087,1.5261 0.74198,2.3818 2.4829,7.2987 7.4533,14.662 13.461,19.942 2.5729,2.2612 7.355,4.3924 9.7259,5.4094 0.43066,0.18473 0.77118,0.37441 0.75671,0.4215 -0.0411,0.13368 -3.817,1.2161 -4.8576,1.6223 -2.0476,0.79926 -4.2078,1.3185 -6.3771,1.5328 -0.89801,0.0887 -3.2682,0.10898 -4.114,0.0352 z"
           transform="translate(-1.0714,6.4286)" />
        <path
           inkscape:connector-curvature="0"
           id="path48"
           style="stroke-width:3;stroke-linecap:square;paint-order:fill markers stroke"
           d="m 233.94,104.36 c -0.29493,-1.011 -0.36424,-4.9307 -0.11323,-6.4039 0.18052,-1.0595 0.42925,-2.0155 0.73175,-2.8125 l 0.22028,-0.58036 0.87661,-0.37587 c 6.358,-2.7261 15.447,-2.3266 21.571,0.88592 0.80344,0.4215 2.4392,1.4017 2.4392,1.4617 0,0.0075 -1.0949,0.01372 -2.433,0.01372 -3.1041,0 -6.7161,0.12299 -9.5525,0.83831 -4.7042,1.1864 -9.3627,3.5235 -12.919,6.4814 -0.62606,0.52073 -0.78467,0.6157 -0.82088,0.49157 z"
           transform="translate(-1.0714,6.4286)" />
      </g>
      <g
         id="g66"
         style="font-variant-ligatures:normal;font-variant-caps:normal;font-variant-numeric:normal;font-feature-settings:normal;stroke:#000000"
         transform="matrix(0.9558,0,0,0.9558,153.06,36.686)">
        <circle
           style="fill:none;stroke-width:2.89129996"
           id="circle52"
           r="24.820999"
           cy="42.099998"
           cx="219.03"
           transform="rotate(56.397)" />
        <g
           style="fill:none;stroke-width:1px"
           id="g60">
          <path
             inkscape:connector-curvature="0"
             id="path54"
             d="m 62.628,197.21 c 3.5889,13.715 31.772,20.168 47.048,12.234" />
          <path
             inkscape:connector-curvature="0"
             id="path56"
             d="m 81.798,231.35 c -18.129,-24.4 2.3788,-49.148 11.665,-49.235" />
          <path
             inkscape:connector-curvature="0"
             id="path58"
             d="m 81.798,231.35 c -18.129,-24.4 2.3788,-49.148 11.665,-49.235" />
        </g>
        <path
           inkscape:connector-curvature="0"
           id="path62"
           style="stroke-width:0.37880999;stroke-linecap:square;paint-order:fill markers stroke"
           d="m 84.517,222.46 c -0.45141,-0.0615 -1.3165,-0.20682 -1.9224,-0.32302 l -1.1017,-0.21128 -0.55289,-0.96354 c -1.0528,-1.8347 -1.1948,-2.1064 -1.8311,-3.5021 -1.7543,-3.8482 -2.7102,-7.8488 -2.8833,-12.067 l -0.08119,-1.979 1.5013,0.56576 c 10.163,3.83 22.868,4.0269 31.267,0.48468 0.56687,-0.23907 1.0537,-0.41167 1.0818,-0.38354 0.0899,0.0899 -0.47567,2.1015 -0.94131,3.348 -2.1367,5.72 -6.2666,10.225 -11.81,12.881 -1.8719,0.89715 -3.3976,1.4142 -5.4453,1.8455 -1.2689,0.26724 -1.9635,0.33148 -3.998,0.36981 -1.3542,0.0255 -2.8316,-0.004 -3.283,-0.0654 z"
           transform="translate(-1.0714,6.4286)" />
        <path
           inkscape:connector-curvature="0"
           id="path64"
           style="stroke-linecap:square;paint-order:fill markers stroke"
           d="m 73.839,201.02 c -3.8754,-2.0575 -6.908,-4.7946 -8.4548,-7.6312 l -0.46735,-0.85704 0.40286,-1.1537 c 2.3213,-6.6475 8.0334,-12.127 14.904,-14.296 2.5785,-0.81424 3.9765,-1.0145 7.0964,-1.0168 3.1846,-0.002 3.4077,0.065 2.2876,0.68978 -1.9341,1.0788 -4.8869,3.7064 -6.7361,5.9943 -1.2625,1.562 -3.0406,4.3046 -3.9465,6.0872 -2.0755,4.0843 -3.0635,7.3496 -3.6901,12.196 -0.04265,0.32988 -0.11667,0.59869 -0.1645,0.59736 -0.04783,-0.001 -0.60205,-0.27589 -1.2316,-0.61013 z"
           transform="translate(-1.0714,6.4286)" />
      </g>
      <g
         aria-label="I"
         transform="translate(51.709,-89.189)"
         style="font-size:96px;line-height:1.25;font-family:'Varela Round';font-variant-ligatures:normal;font-variant-caps:normal;font-variant-numeric:normal;font-feature-settings:normal;letter-spacing:0px;word-spacing:0px;fill:#000000"
         id="flowRoot74">
        <path
           d="m 161.11247,347.79515 q -1.824,0 -3.072,-1.248 -1.248,-1.248 -1.248,-3.072 v -59.232 q 0,-1.824 1.248,-3.072 1.248,-1.344 3.072,-1.344 1.824,0 3.072,1.344 1.344,1.248 1.344,3.072 v 59.232 q 0,1.824 -1.344,3.072 -1.248,1.248 -3.072,1.248 z"
           style=""
           id="path942" />
      </g>
    </g>
  </g>
</svg>
